<?xml version="1.0" encoding="UTF-8"?><svg id="Layer_1" xmlns="http://www.w3.org/2000/svg" viewBox="0 0 42.35 44.78"><defs><style>.cls-1{fill:#333333;}</style></defs><path class="cls-1" d="M38.32,35.05c-2.52,1.45-13.55,7.79-16.65,9.59-.34.19-.58.19-.92,0-6.69-3.81-13.39-7.62-20.1-11.4-.45-.25-.62-.53-.61-1.05.03-1.9.01-3.8.01-5.81.24.12,13.94,7.82,20.61,11.59.39.22.68.23,1.07,0,1.56-.92,3.14-1.8,4.71-2.69.18-.1.35-.21.58-.35-.2-.13-.35-.24-.5-.33-5.69-3.21-11.39-6.42-17.09-9.61-.53-.3-.71-.62-.71-1.23.04-2.83.02-8.92.02-9.27.75.43,3.72,2.18,4.58,2.65.37.2.49.45.48.85-.03.81.01,1.62-.01,2.43-.01.39.11.6.46.8,7.73,4.43,23.72,13.63,24.08,13.84Z"/><path class="cls-1" d="M5.88,3.06C3.42,1.66,1.43.54.55.04.32-.08.04.08.04.34.03,2.94,0,13.83,0,19.46c0,.28.15.53.39.66,1.34.73,4.91,2.71,5.46,3.02l.03-20.08Z"/><path class="cls-1" d="M41.85.05c-2.57,1.44-14.22,8.07-20.19,11.51-.28.16-.63.16-.92,0-3.15-1.81-7.89-4.52-12.04-6.88v6.66l24.94,14.42c.04-.15.06-.2.06-.25,0-2.04.02-4.07-.01-6.1,0-.2-.21-.47-.4-.58-1.13-.68-5.26-3.06-6.27-3.65,3.2-1.84,6.32-3.63,9.54-5.48,0,.34,0,11.72-.01,17.18,0,.41.1.65.48.84.75.39,4.25,2.44,5.32,3.06V.34c0-.26-.28-.42-.5-.3Z"/></svg>